<svg width="132" height="41" viewBox="0 0 132 41" fill="none" xmlns="http://www.w3.org/2000/svg">
<g clip-path="url(#clip0_1_1478)">
<path d="M17.6173 6.35126L21.467 9.1204L19.1152 11.9694C20.739 13.7187 21.3374 15.7148 21.3374 17.9142C21.3374 20.3966 20.354 23.8988 16.8893 25.405C20.3959 27.0745 21.2497 29.477 21.2497 32.0429C21.2497 37.5812 16.8016 41 10.6878 41C4.57394 41 0 37.4578 0 32.0429H5.17236C5.17236 34.6488 7.69565 36.3582 10.6878 36.3582C13.6799 36.3582 16.0316 34.8121 16.0316 32.0429C16.0316 29.2738 13.2949 28.0108 10.6878 28.0108C4.10511 28.0108 0 24.1856 0 17.9142C0 11.6428 4.78739 7.73401 10.6916 7.73401C12.3611 7.73401 14.0687 7.93725 15.5247 8.87361L17.6173 6.35126ZM5.17236 17.9142C5.17236 21.4164 7.65372 23.4924 10.6878 23.4924C13.6799 23.4924 16.1612 21.3765 16.1612 17.9142C16.1612 14.4518 13.6837 12.2561 10.6916 12.2561C7.65372 12.2561 5.17236 14.4119 5.17236 17.9142Z" fill="#112211"/>
<path d="M60.4865 0V28.4608H55.3141V0H60.4865Z" fill="#112211"/>
<path d="M83.7297 18.444C83.7297 24.2254 79.5827 28.9072 72.7408 28.9072C65.899 28.9072 61.7939 24.2254 61.7939 18.444C61.7939 12.7025 65.9828 7.98077 72.6989 7.98077C79.415 7.98077 83.7297 12.7025 83.7297 18.444ZM67.0082 18.444C67.0082 21.4962 68.933 24.3488 72.737 24.3488C76.541 24.3488 78.4659 21.4999 78.4659 18.444C78.4659 15.4317 76.2437 12.4992 72.737 12.4992C68.975 12.4992 67.0082 15.4317 67.0082 18.444Z" fill="#112211"/>
<path d="M90.2514 0V11.1165C91.4901 9.04054 94.9549 7.90095 97.1771 7.90095C103.333 7.90095 107.911 11.483 107.911 18.4041C107.911 24.9985 103.249 28.9072 97.0513 28.9072C94.4861 28.9072 91.8789 28.0943 90.2514 25.6917L89.9083 28.4608H85.0333V0H90.2514ZM90.5906 18.4041C90.5906 22.0261 93.4112 24.3089 96.7044 24.3089C100.04 24.3089 102.692 21.9063 102.692 18.4041C102.692 14.7821 100.04 12.5428 96.7044 12.5428C93.415 12.5392 90.5906 14.9018 90.5906 18.4041Z" fill="#112211"/>
<path d="M115.667 21.9027C116.879 24.1238 119.654 25.0711 123.111 23.8734C124.918 23.2455 127.041 21.7757 127.742 20.2768L132.004 22.135C130.704 24.9259 127.67 27.1035 124.655 28.1487C117.825 30.515 112.229 27.9055 109.919 21.8591C107.724 16.1212 110.243 10.5684 116.674 8.34007C123.302 6.04273 128.935 8.51065 131.139 16.5422L115.667 21.9027ZM124.96 14.3066C123.702 11.9693 121.225 11.4431 118.412 12.4158C115.759 13.334 114.059 15.3119 114.272 18.0085L124.96 14.3066Z" fill="#112211"/>
<path fill-rule="evenodd" clip-rule="evenodd" d="M47.5625 13.655C45.8714 10.2958 42.3461 7.98077 37.6434 7.98077C30.9274 7.98077 26.7384 12.7025 26.7384 18.444C26.7384 22.1095 28.3885 25.333 31.3401 27.2015C31.5083 27.0817 31.6096 27.0039 31.6096 27.0039C33.0818 26.0893 34.5179 25.1265 35.9156 24.1176C33.2824 23.3799 31.9527 20.9809 31.9527 18.444C31.9527 15.4317 33.9233 12.4992 37.6815 12.4992C40.9912 12.4992 43.1567 15.1115 43.3895 17.9376C44.8403 16.5667 46.2325 15.1381 47.5625 13.655ZM37.1529 28.8976C41.3176 26.087 45.1684 22.8764 48.6421 19.319C48.2445 24.6905 44.1785 28.9072 37.6854 28.9072C37.506 28.9072 37.3285 28.904 37.1529 28.8976Z" fill="#8DD3BB"/>
<path d="M51.8151 5.16809C46.4864 3.30264 42.6557 7.31663 42.6557 7.31663L46.2882 9.32725C47.649 8.58325 48.255 9.30547 48.4113 9.70107C48.5218 9.98052 48.3732 10.2854 48.255 10.4523L47.3707 11.5157C42.5986 16.9959 36.9879 21.7575 30.7254 25.6481C30.7254 25.6481 28.8348 27.0998 27.8286 27.1216C26.9824 27.1398 26.605 26.4611 27.3178 25.4884L25.5645 21.7212C25.5645 21.7212 21.002 24.5666 21.8863 29.5678C22.2598 31.68 24.3447 33.1825 26.5593 32.8014C27.6913 32.6091 29.0902 32.0828 30.8016 31.0049L33.95 29.0451C40.2125 25.1473 45.827 20.3712 50.5953 14.8837L51.6778 13.6388C53.3092 11.8714 54.041 10.416 54.2888 9.26555C54.6699 7.50535 53.576 5.78507 51.8151 5.16809Z" fill="#8DD3BB"/>
</g>
<defs>
<clipPath id="clip0_1_1478">
<rect width="132" height="41" fill="white"/>
</clipPath>
</defs>
</svg>
